<?xml version="1.0" encoding="UTF-8" standalone="no"?>
<!-- Created with Inkscape (http://www.inkscape.org/) -->

<svg
   version="1.1"
   id="svg2"
   xml:space="preserve"
   width="2666.6667"
   height="2666.6667"
   viewBox="0 0 2666.6667 2666.6667"
   sodipodi:docname="shutterstock_1498542905(2).eps"
   xmlns:inkscape="http://www.inkscape.org/namespaces/inkscape"
   xmlns:sodipodi="http://sodipodi.sourceforge.net/DTD/sodipodi-0.dtd"
   xmlns="http://www.w3.org/2000/svg"
   xmlns:svg="http://www.w3.org/2000/svg"><defs
     id="defs6" /><sodipodi:namedview
     id="namedview4"
     pagecolor="#ffffff"
     bordercolor="#666666"
     borderopacity="1.0"
     inkscape:pageshadow="2"
     inkscape:pageopacity="0.0"
     inkscape:pagecheckerboard="0" /><g
     id="g8"
     inkscape:groupmode="layer"
     inkscape:label="ink_ext_XXXXXX"
     transform="matrix(1.3333333,0,0,-1.3333333,0,2666.6667)"><g
       id="g10"
       transform="scale(0.1)"><path
         d="M 20000,0 H 0 V 20000 H 20000 V 0"
         style="fill:#231f20;fill-opacity:1;fill-rule:nonzero;stroke:none"
         id="path12" /><path
         d="M 321.914,20000 H 202.996 C 139.59,19983.5 71.75,19969.3 0,19957.3 v -33.8 c 118.219,19.5 226.148,45.1 321.914,76.5 z M 19407.8,19878.6 c 82,0 162.4,2.1 240.3,6.7 125.4,7.3 243,20.2 351.9,38.2 v 33.8 c -109.2,-18.3 -227.4,-31.4 -353.8,-38.7 -369.9,-21.6 -796.1,9.8 -1189.2,81.4 h -169.8 c 358,-77.5 755.6,-121.4 1120.6,-121.4 z M 17366.1,1101.4 C 16677.4,2749.6 16090,4142 15860.5,4616.9 15337.9,4237.1 14609.2,3718.1 13788.1,3136 c -125.1,-919.7 45.1,-1855.4 479.8,-2635.301 4.8,-8.597 8.6,-15.5 11.9,-21.398 z M 14239.4,483.402 c -0.2,0.399 -0.4,0.7 -0.6,1.098 -433.4,777.6 -605.6,1708.6 -487.3,2625.5 -248.9,-176.4 -506.1,-358.5 -768.4,-544.2 -47.1,-153.9 -235.8,-943.2 450.5,-1929.999 276.7,-52.301 546.5,-103.399 805.8,-152.399 z m -852.1,161.2 c -626.7,919.598 -505.2,1667.798 -447.4,1890.698 -169.6,-120 -341.2,-241.5 -514.1,-363.8 -83.9,-59.4 -168.2,-119 -252.7,-178.8 -123.9,-340.9 -215.8,-776.8 151.2,-1146.899 360.4,-68.301 717,-135.801 1063,-201.199 z m -1119.1,211.8 C 11940.9,1215.6 12011,1626.7 12125.9,1959.3 c -239.9,-169.8 -481.6,-340.8 -723.2,-511.9 -9.3,-137.5 -1,-296.9 116.5,-448.998 249.8,-47.402 500.2,-94.902 749,-142 z m -777,113.297 c -198.3,37.701 -396.2,75.201 -592.7,112.501 -0.5,-2.1 -1,-4.2 -1.6,-6.4 122.7,-172.198 243.1,-340.198 361.7,-504.8 33,146.5 112.7,283.203 232.6,398.699 z m -254,-426 C 11122,703.602 11005,866.703 10886,1033.8 10829.2,815.301 10772.7,598.402 10717,384 c 99.2,56 275.4,133.5 520.2,159.699 z M 10858.9,1062 c -164.5,-116.598 -328.1,-232.699 -490.3,-347.898 127.7,-65.102 229.5,-168.403 316.3,-320.903 57.4,220.602 115.5,443.903 174,668.801 z m -186,-715.199 c -90.7,170 -197.5,280.097 -334.9,345.601 -82.9,-58.902 -165.4,-117.601 -247.4,-175.902 128,-79.5 384.2,-256.5 505.3,-465.3984 25.5,97.8984 51.1,196.5004 77,295.6994 z M 10322.2,722 c 45.7,160.102 -1.8,313.5 -154,496.5 l 2.3,1.9 c -209.64,39.9 -415.78,79.1 -617.02,117.4 172.86,-328 237.45,-700.999 179.56,-1034.898 193.39,137.797 390.16,277.797 589.16,419.098 z m -796.67,655.1 c 239.37,189.4 495.47,423.9 604.57,731 -224.12,322.6 -453.1,655.6 -686.09,998.5 -135.02,-510 -487.6,-1202.8 -900.11,-1542.3 307.42,-58.7 637.08,-121.6 981.63,-187.2 z m -106.44,1766.1 c -226.43,333.5 -456.6,676.3 -689.7,1027.7 C 8748,3312.5 8154.49,2418.1 7601.97,1975 l -5.29,-9.6 v 0 l -3.08,-5.6 0.09,0.1 -1.05,-1.9 -1.28,0.8 8.98,14.8 c -89.87,-71.9 -178.5,-131.5 -263.32,-177.4 325.18,-62.9 720.68,-138.9 1163.95,-223.6 424.02,333.8 788.02,1054.6 918.12,1570.6 z m -724.06,1065.9 c -46.21,-6 -127.44,-8.8 -239.76,-8.8 -356.44,0 -1025.81,28.1 -1878.98,72.8 L 7003.76,1861 c 85.89,-16.8 179.82,-35.1 280.99,-54.7 610.25,304.5 1455.04,1384.8 1410.28,2402.8 z M 6969.73,1862 6545.2,4257.5 C 6206.85,3935.2 5730.93,3144.9 5595.31,2825.7 5431.64,2440.5 5375.28,2104.5 5412.92,1739 Z m -1405.08,976.8 c 135.77,319.5 610.71,1108.4 951.79,1437.4 -165.68,8.8 -338.09,18.1 -516.23,28 l 3.19,-4.7 c -346.17,-233.7 -737.89,-914.3 -870.67,-1226.8 -121.17,-285.3 -176.47,-551 -169.83,-811.6 152.64,-180.2 291.54,-344.4 413.38,-488.6 -30.84,357.2 27.86,688.5 188.37,1066.3 z M 5354.58,1746.6 c -126.75,150 -266.14,314.7 -416.31,492.1 l -8.5,-0.3 c -0.14,3.5 0.03,7 -0.08,10.5 -104.44,123.3 -213.97,252.6 -327.67,386.7 -539.95,5.6 -1281.37,-331.1 -1711.53,-655.6 -30.92,-379.9 -64.8,-771.6 -101.58,-1173.5 620.31,767.2 1889.75,1064.5 2565.67,940.1 z M 2800.2,1306.1 c -28.87,27.7 -57.14,56.1 -85.36,84.7 -52.7,53.3 -107.19,108.5 -165.41,157.1 -594.87,496.9 -1109.28,839.2 -1528.91,1017.5 -141.512,60.1 -273.399,101.8 -392.293,124.2 C 424.645,2538 227.066,2390.8 36.7813,2249 582.066,2161.7 1918.99,1593.6 2738.76,741 c 3.95,5.402 8.1,10.602 12.11,15.898 17.03,185.204 33.57,368.602 49.33,549.202 z M 2724.96,707.301 C 1905.79,1566.2 557.141,2136.7 21.2852,2217.7 L 713.805,538.602 Z M 664.199,2716.4 c 113.324,-23.9 237.305,-64.2 369.341,-120.3 422.68,-179.6 939.86,-523.6 1537.24,-1022.6 59.46,-49.7 114.52,-105.4 167.76,-159.3 21.61,-21.8 43.47,-43.4 65.38,-64.8 18.6,214.1 36.41,425.2 53.3,632.7 -391.38,429.9 -896.29,801.8 -1351.88,995.4 -115.8,49.2 -229.27,87.3 -337.61,113.7 C 996.648,2963.9 828.559,2838.8 664.199,2716.4 Z m 326.93,284.9 c 289.341,215.4 588.071,437.7 892.221,663.9 21.35,297.4 -115.16,611.9 -395.33,910.2 -321.58,19.9 -639.997,39.6 -952.426,58.8 423,-379.9 624.316,-1102.7 455.535,-1632.9 z M 535.625,4667.6 c 313.543,-19.3 633.115,-39 955.865,-59 646.23,392.8 593.62,854.6 574,1011.5 -236.47,277.5 -470.03,551.4 -696.26,816.4 C 1285.85,5316.2 720.719,4805.8 535.625,4667.6 Z m 828.875,1826 c 567.56,-91.3 1335.04,-7.5 1780.58,385.2 10.72,312.4 19.12,604.1 25.59,873.4 C 2605.41,7223.5 1500,7153.4 958.43,7153.4 c -60.887,0 -114.399,0.9 -159.446,2.1 181.301,-212 370.746,-433.7 565.516,-661.9 z m 1827.69,1331.3 c 13.08,19.3 32.45,48.1 57.66,85.5 629.99,936.1 1148.16,1679.7 1545.74,2218.5 -140.38,770.1 -517.86,1802.3 -1124.5,2200.3 -1001.25,-187.4 -1779.77,-352.4 -2283.6,-471.2 519.38,-1140.5 1670.83,-3709.8 1804.7,-4033.1 z m -1828.88,4086.2 c 79.05,205.7 210.04,508.4 387.47,918.5 230.71,533.1 546.33,1262.5 948.71,2241 -73.91,37.7 -152.35,77.8 -235.4,120.2 -551.13,-140.1 -1648.43,-645.4 -1904.496,-1569.4 262.16,-591.8 464.876,-1026.2 577.936,-1224.5 14.85,-26 99.18,-208.2 225.78,-485.8 z m -824.341,1756.8 c 273.129,895 1320.321,1393.6 1880.631,1545.6 -288.12,147.2 -626.03,319.7 -999.25,510.2 l -7.87,-1.6 -0.06,0.1 C 1118.58,15664.7 383.91,15508.4 121.664,14626.4 272,14277 412.219,13954.7 538.969,13667.9 Z m 851.361,2108.5 c -194.12,518.4 -234.83,1354.5 -97.51,2025.2 -252.62,-114.1 -511.441,-229.6 -778.289,-347.2 -16.558,-7.3 -33.437,-14.7 -50.027,-22 -71.805,-501.5 68,-1037.2 134.277,-1252 276.254,-140.9 541.399,-276.3 791.549,-404 z m 44.37,-22.6 c 376.01,-191.9 716.21,-365.6 1005.77,-513.5 -138.63,530.8 -502.94,1928.1 -293.05,2953.1 -266.3,-123.9 -537.82,-248.5 -817.11,-374.8 -145.26,-684 -101.5,-1549.2 104.39,-2064.8 z m 1038.3,-506.2 7.22,-27.6 c 85.87,-43.8 166.96,-85.3 243.04,-124.1 87.46,16.3 191.46,36 303.5,57.2 400.3,75.7 893.39,168.9 1085.03,196.8 -258.85,479.3 -708.82,1331.8 -1106.4,2085 -191.43,362.6 -365.95,693.3 -491.65,930.1 -108.75,-51.3 -218.5,-102.7 -328.91,-154.1 -219.23,-1020.1 149.2,-2431.2 288.17,-2963.3 z m 83.17,3108.6 c 124.61,-234.9 293.8,-555.5 478.69,-905.7 399.15,-756.3 851.15,-1612.6 1109.42,-2090.6 573.97,2.3 1761.36,225 2233.52,1057.4 -86.37,499 -164.35,902.2 -233.74,1191 -1238.57,301.9 -3016.95,641 -3587.89,747.9 z m 3619.88,-738.4 c 69.8,-290.2 148.24,-695.7 235.12,-1197.9 117.71,-77.4 1579.23,-1005.7 2755.95,-616.1 230.6,297.4 399.91,515.1 484.86,623.5 64.49,247.3 159.76,612.7 276.67,1061.4 -256.54,509.9 -985.74,1476.1 -1933.22,1526.2 -997.31,-723.6 -1703.05,-1255.6 -1819.38,-1397.1 z M 8036.99,19045 c 923.03,-73.7 1634.34,-991.9 1904.26,-1508 84.45,324.3 179.85,690.2 282.85,1085.8 l -3.2,7.3 v 0 c -129.2,297 -428.9,957.9 -1339.82,1023.2 -297.54,-213.4 -580.61,-417.3 -844.09,-608.3 z m 1934.89,-1522.6 c 458.22,234 1777.42,901.5 2824.32,917.7 -170.7,223.5 -350.9,461.8 -539.8,714.6 -708.8,-5.5 -1546.8,-231.6 -1999.8,-539.5 -103.8,-398.4 -199.8,-766.9 -284.72,-1092.8 z m 297.22,1141 c 459,297.1 1269.1,514 1962.6,524.2 -174.2,233.3 -355.8,478.9 -543.6,735.4 -508.8,-38 -1000.6,-289.1 -1195.1,-399.6 -77.5,-297.8 -152.4,-585.7 -223.9,-860 z m -298.49,-1179.1 -9.99,-5.1 c -116.07,-445.4 -210.75,-808.6 -275.16,-1055.6 l 5197.64,-4098.8 c 52.7,353 132,942.7 208.7,1514.1 74.8,556.9 152,1132.5 205.3,1493 -160.1,180.5 -649.8,800.6 -811.9,1006 -31.3,39.5 -50.3,63.6 -52.4,66.1 -288.7,322.5 -855.1,1014.2 -1611.5,2003.3 -1055.1,-5.9 -2406,-695.9 -2850.69,-923 z m 2886.09,931.5 c 751.3,-982 1313.7,-1668.8 1601.1,-1989.8 1.4,-1.6 10.1,-12.5 53.5,-67.5 161.2,-204.1 646.4,-818.5 808.3,-1001.7 96.6,37 192.4,73.8 287.6,110.5 327.9,879.7 310.7,1881.3 288,2271.8 -20.2,346.3 -72,641.9 -153.9,879.2 -331,168.3 -640.5,325.5 -919.6,467 l 0.3,-1.1 z m 2926.5,181.2 c 76.7,-234.6 125.8,-521.8 145.3,-856 22.6,-388.6 39.6,-1378.9 -280.1,-2257.8 182,70.3 361.4,140.1 538.3,209.4 12,37.8 24.7,75.4 37.7,113.1 24.4,70.8 49.6,144.1 67.3,217.8 181.2,753.7 259.7,1366.6 233.2,1821.7 -8.9,153.4 -30.1,290.1 -62.8,406.5 -233.8,118.9 -460.8,234.4 -678.9,345.3 z m 718.8,-365.7 c 28.9,-112.1 47.8,-241 56.1,-384.1 26.7,-458.4 -52,-1074.6 -234,-1831.4 -18.1,-75.3 -43.6,-149.4 -68.2,-221 -9.9,-28.7 -19.3,-57.6 -28.8,-86.4 201.4,79 399.3,157.2 593.7,234.7 53.3,135.2 433.4,1145.2 240.7,2003.4 -189.6,96.6 -376.5,191.7 -559.5,284.8 z m 400.2,-166.3 c 327.4,-166.6 664.1,-338.2 1004,-511.4 261.9,107.4 457.7,355.2 615.3,778.9 -120.9,289.4 -241.9,579.3 -362.1,867.5 -153,-549 -709.6,-1051.1 -1257.2,-1135 z m 1637.8,223.1 c -153.7,-399.4 -344.2,-640.7 -595.5,-754 230.4,-117.4 462,-235.4 693,-353.2 126.4,64.7 208.5,154.8 250.6,275 -115.3,275.2 -231.6,553.3 -348.1,832.2 z m 34.8,3.2 c 114.9,-275.2 229.7,-549.6 343.5,-821.2 172.8,-49.8 323.3,-38.5 471.9,35.4 101.4,235.2 202.8,470.7 303.3,704.3 -152.1,-88.9 -306.6,-123.5 -454,-123.5 -262.4,0 -501.9,107.8 -664.7,205 z m 831.7,-832.2 c -79.3,-183.9 -158.4,-367.4 -237,-549.5 0.1,-0.1 0.2,-0.1 0.3,-0.2 196.5,83.4 386.9,165 571.1,244.4 -133.5,62.6 -248,167.1 -334.4,305.3 z m 356.3,-332.1 c -178.9,-77.2 -363.8,-156.4 -554.2,-237.3 201.5,-102.8 401.4,-204.8 598.1,-305.1 -33.3,109 -71.1,297.7 -43.9,542.4 z m 28,-571.7 c -204.5,104.3 -412.3,210.3 -621.9,317.2 79.3,-188.7 157.7,-375.1 235.1,-558.6 91.5,111 216,188.7 386.8,241.4 z m -403.5,-287.5 c -188,101.6 -371.3,34.1 -510.9,-37.5 -84.3,-195.2 -167.1,-387 -247.9,-574.1 414.1,129.2 790.7,39.7 1046.1,-67.5 -93.7,220.6 -189.6,447.4 -287.3,679.1 z m -540.1,-21.1 c -44.9,146.9 -97.5,298 -192.5,409.4 -201.4,-84.3 -408.4,-170.3 -620.7,-257.6 264.4,-174 434.4,-460.2 565.1,-726.2 80.9,187.1 163.8,379.1 248.1,574.4 z m -265.5,-614.7 c -133.5,275.4 -307.6,577.6 -585,751.1 -357.6,-147 -730.3,-298.1 -1117,-452.4 539.6,-277.5 1088.9,-788.4 1306.3,-1214.1 123.5,285.5 256.4,593.1 395.7,915.4 z m -692.6,1892.9 c -266.1,135.6 -530.3,270.2 -789.6,402.3 171.5,-815.2 -155.4,-1753.5 -236.5,-1967.3 388.7,155.1 763.1,306.9 1122.3,454.5 112.2,328.9 35,814.6 -96.2,1110.5 z m 749.1,-418.4 c -4.8,14.5 -9.5,29.1 -14.2,43.8 -229.6,117.1 -459.9,234.5 -688.9,351.2 120.7,-295.7 188,-748.3 90.1,-1070.6 213,87.6 420.7,173.9 622.7,258.4 75.7,156.1 34.3,283 -9.7,417.2 z m 27.8,22.4 c 1.3,-4 2.6,-8 3.9,-12 43.1,-131.4 83.7,-256.2 22.7,-408.8 147.1,61.7 291.3,122.4 432.4,182.3 0,0.1 0.1,0.2 0.1,0.3 -0.7,1.8 -1.4,3.5 -2.1,5.2 -151.7,77.3 -304.2,155.1 -457,233 z m 240.5,282.9 c -45,-105.6 -121.9,-187.6 -233.1,-249.2 143.6,-73.3 287,-146.4 429.6,-219.1 -65.1,154.9 -130.6,311.1 -196.5,468.3 z m 236.9,-478.6 c 75.3,174.5 151.1,350.2 226.9,526.2 -81.4,-35.1 -165.1,-52.8 -252.5,-52.8 -59.3,0 -120.3,8.6 -183.3,24.7 70.1,-167.4 139.8,-333.5 208.9,-498.1 z m -37.5,-87.1 c -137,-58 -276.7,-116.9 -419.3,-176.7 86.9,-105.4 138.4,-240.8 180.9,-375.7 78.4,181.8 158.1,366.3 238.4,552.4 z m -209.1,-568.6 c 132.8,63.6 297.8,113.5 470.7,37.3 -73.9,175.3 -148.8,353.2 -224.5,533.3 -82.9,-192.3 -165.2,-382.9 -246.2,-570.6 z m -728.2,-1601 c -208.4,431.6 -777.1,961.1 -1330.1,1237.8 -373.2,-148.8 -759.5,-300.5 -1158,-454.4 981.2,-194.1 1829.9,-1203.1 2020.6,-1863.9 127.9,295.5 287.2,663.5 467.5,1080.5 z m -488.7,-1129.3 c -167.2,662.2 -1047.1,1721.6 -2058.1,1890 -96.6,-37.2 -193.9,-74.6 -292,-112.1 -53.2,-360.4 -130.4,-934.9 -205,-1490.6 -77.1,-574 -156.6,-1166.5 -209.4,-1519.2 143.9,30.8 347.2,73.3 580.9,122.2 593.4,124.1 1404.7,293.8 1878.3,404.8 20.1,46.5 131.5,303.4 305.3,704.9 z m -302.2,-738.4 c -474.5,-111.1 -1282.8,-280.2 -1874.6,-403.9 -226.4,-47.4 -424.2,-88.8 -567.2,-119.3 1430.3,-1030.6 2365.3,-935.3 2627.5,-877.9 113.9,140.7 228.7,282.6 345.4,427.2 -73.5,138 -162.5,298.8 -248.6,454.3 -107.1,193.4 -208.2,376 -282.5,519.6 z m 184.3,-1455.7 c -190.2,-234.8 -376.7,-464.1 -559.3,-687.8 7,-285.4 75.8,-1216.8 659.3,-1673.7 338.1,49.8 640.9,96.1 903.6,137.3 -661.2,487.7 -919.1,1686.3 -1003.6,2224.2 z M 18577.8,9097 c -265.1,-41.5 -570.9,-88.3 -913,-138.7 -337.8,-641.6 -489.9,-1559.8 -437.1,-2045.4 l -15.6,-1.9 -0.6,-6.2 c 276.8,-261.7 538,-509 778.6,-736.9 6.3,-0.1 12.5,-0.2 18.7,-0.3 6.4,263 66.7,1957.7 569,2929.4 z m -601.2,-2962.2 c -561.4,4.2 -1671.5,-198.8 -2164.3,-1009 10.5,-73.7 20.9,-145.7 31.1,-215.1 509.1,1.7 1899.6,-74.4 3609.2,-177.2 -133.7,127.3 -692.4,658.9 -1476,1401.3 z M 12963.7,2592.9 c 299.7,212.1 592.7,419.6 874.4,619.4 -590.9,154.6 -1603.1,765.2 -1993,1517.7 -92.7,-358.4 -191.4,-739.1 -293.6,-1133.5 179.8,-535.6 824.3,-993.6 1412.2,-1003.6 z m -809.3,-572.6 c 84.4,59.7 168.5,119.2 252.2,178.4 172.2,121.9 343.3,242.9 512.2,362.5 -571.2,30.8 -1182.8,463.9 -1382.2,978.1 -91.7,-354 -186.3,-718.2 -282,-1086.8 160.4,-231.3 446.7,-368.8 899.8,-432.2 z m -773.3,-547.4 c 245.2,173.7 490.6,347.4 734.1,519.7 -428.2,64.7 -707.1,198.5 -871.4,418.2 -65.2,-251.1 -130.9,-503.8 -196.5,-756.5 85.3,-102.7 200.4,-165.2 333.8,-181.4 z m -453.7,-362.3 c 180.4,-34.2 362,-68.7 544,-103.2 -97,141.6 -109.8,286.6 -103.6,415.3 -147,-104.2 -294,-208.3 -440.4,-312.1 z m -13.3,31.4 c 142.3,100.9 285.1,202.1 428,303.3 -119.5,21.9 -223.6,80.1 -304.9,170.2 -41.1,-158.1 -82.2,-316.1 -123.1,-473.5 z m -50.5,-19.3 c 3.5,-0.6 7,-1.3 10.5,-2 42.8,164.4 85.7,329.5 128.6,494.7 l -0.2,-0.1 c -104.1,-60.7 -203.5,-118.7 -341.8,-118.7 -20.7,0 -42.6,1.8 -65.1,4.6 90.2,-128 179.6,-254.3 268,-378.5 z m -710.4,952.3 c -112.5,-294.5 -353.71,-521.5 -584.49,-706.1 201.34,-38.4 407.57,-77.6 617.29,-117.5 131.9,74.7 265.6,157.8 352.5,273 -126.7,179.9 -255.2,363.4 -385.3,550.6 z m 405.3,-579 c -82.9,-105.7 -201.5,-184.5 -322,-254.2 190.9,-36.2 384.5,-73 579.9,-110.1 -85.1,119.7 -171.1,241.1 -257.9,364.3 z m 10.8,42.6 c 180,-32.3 289.7,31.6 416.4,105.5 l 28.8,16.7 c 65,249.9 129.9,499.9 194.4,748.3 -244,-168.7 -630.4,-322 -953.4,-322 -24.5,0 -48.6,1.2 -72.3,3.1 130.4,-187.5 259.1,-371.4 386.1,-551.6 z M 9472.11,3124.5 c 233.05,-342.9 462.05,-676 686.29,-998.6 345.1,-38.7 802.8,141.4 1063.5,333.3 75.2,289.6 149.7,576.4 222.7,857.8 -96.2,-43.3 -201.4,-81.7 -314.5,-113.6 -296.3,-83.8 -648,-126.6 -1008,-126.6 -217.15,0 -437.02,16.1 -649.99,47.7 z m -382.18,566.1 c 119.91,-178.7 238.99,-355.2 356.98,-529 569.79,-89 1195.09,-61.5 1674.09,73.9 121.1,34.1 233.4,75.5 334.3,122.7 53.4,206.1 106,409 157.5,607.7 -103.4,-52.4 -225.1,-98.7 -363.1,-137.6 -396.1,-111.9 -934.2,-168.5 -1601.99,-168.5 -77.22,0 -156.12,0.8 -236.77,2.3 -77.48,1.4 -155.32,10.4 -230.6,19 -30.15,3.5 -60.28,6.5 -90.41,9.5 z m -344.49,516.3 c 107.43,-162 214.16,-321.9 320.26,-480.2 39.47,-3.5 78.94,-7.9 118.43,-12.5 74.51,-8.5 151.55,-17.4 227.43,-18.8 774.94,-14.3 1390.34,41 1829.14,165 147.8,41.7 276.6,91.8 383.3,148.8 66,254.6 130.1,502.2 191.5,739.6 -278.7,-146.7 -542.5,-254.3 -805.2,-328.5 -374.5,-105.8 -1337.73,-336.1 -2264.86,-213.4 z m -15.15,35.9 c 926.77,-127.8 1895.81,103.5 2271.01,209.6 265.3,74.9 532,184.6 814.5,334.4 L 9325.43,8012.6 Z m -2221.26,67.1 c -655.93,624.3 -636.77,1756.9 -513.89,2369.6 -287.92,-213.9 -589.69,-438 -900.67,-669 -84.33,-308 -273.4,-1016.8 402.11,-1644.6 357.54,-20.5 697.06,-39.3 1012.45,-56 z M 4626.44,2658.3 c 105.67,-124.7 206.85,-244.1 302.84,-357.5 -0.29,252.5 55.95,509.9 172.79,784.9 130.48,307.1 509.41,966.7 853.96,1221 -151.99,8.4 -308.13,17.2 -467.77,26.4 l -1.12,-0.8 c -571.28,-387.6 -860.73,-950.9 -860.7,-1674 z m -32.45,38.2 c 9.94,702.1 292.79,1253.3 841.4,1639.6 -303.39,17.4 -619.22,36 -943.74,55.4 -211.12,-175.9 -473.29,-478.7 -535.56,-928.7 -0.65,-4.7 -1.21,-8.7 -1.73,-12.3 225.24,-265.3 440.09,-518.6 639.63,-754 z M 2894.03,2024.1 c 430.02,316.8 1144.32,639.2 1679.8,644.8 -203.33,239.9 -419.59,494.8 -644.78,760.1 -288.94,2.6 -653.86,-18.6 -943.56,-196.7 -27.31,-388.7 -57.73,-791.7 -91.46,-1208.2 z m -989.37,1615.4 c -238.21,-177.2 -473.1,-351.9 -702.75,-522.8 102.15,-26.5 208.28,-62.6 316.47,-108.6 451.74,-191.9 950.99,-557.3 1342.44,-981 33.72,416.3 64.13,819.2 91.43,1207.7 -256.34,259 -720.25,391 -1047.59,404.7 z m -368.86,933 c 262.16,-288.4 393.6,-591.7 382.12,-881.6 208.42,155.1 419.28,311.9 631.37,469.6 -2.06,142.1 -50.64,265.5 -141,358 -193.17,12 -386.61,23.9 -579.66,35.9 -97.84,6 -195.46,12.1 -292.83,18.1 z m 12.68,32.6 c 93.85,-5.8 187.92,-11.6 282.2,-17.5 193.27,-11.9 386.92,-23.9 580.3,-35.8 188.58,205.8 191.54,355.4 190.68,438.7 -166.2,195.3 -332.48,390.6 -497.49,584.2 18.32,-191.4 11.08,-606.7 -555.69,-969.6 z m 214.34,1421.6 c 108.3,-127 217.57,-255.2 327.39,-384.1 308.87,-60.3 757.2,-24.3 1016.8,273.6 7.22,161.8 13.85,319.4 19.93,472.6 -361.57,-245.5 -759.72,-369.7 -1186.71,-369.7 -58.57,0 -117.79,2.9 -177.41,7.6 z m 1380.72,807.6 c -359.73,-302.6 -876.63,-408.6 -1334.16,-408.6 -146.16,0 -285.4,11.2 -412.26,29.7 110.32,-129.3 222.27,-260.5 335.35,-393.1 507.5,-47.1 977.07,76.8 1396.1,367.8 5.42,138.4 10.41,273.1 14.97,404.2 z m 33.49,3.6 c -10.06,-289.3 -22.15,-596.5 -36.61,-920.8 434.4,-298.3 1005.46,-410.1 1181.87,-438.7 241.11,179.1 479.09,355.9 712.08,529 -536.35,55.6 -1303.07,397.9 -1857.34,830.5 z M 4496.34,4424.6 c 326.54,-19.5 644.18,-38.2 949.2,-55.7 -628.56,607.9 -482.26,1281.9 -394.34,1609.5 -232.28,-172.6 -469.51,-348.8 -709.84,-527.4 -84.44,-310 -26.62,-692.5 154.98,-1026.4 z m -38.82,2.3 c -170.41,322.8 -228.35,688.1 -158.15,992.9 -116.22,-86.3 -233.09,-173.2 -350.47,-260.4 -49.01,-228.7 41.17,-537.1 102.64,-708.1 136.62,-8.3 272,-16.4 405.98,-24.4 z M 3925.9,3484.1 c 65.05,432.5 309.88,730 517.71,910.3 -243.16,14.5 -491.08,29.5 -742.15,44.8 -129.09,-91.5 -183.21,-235.4 -180.1,-478.8 137.64,-162 272.79,-321.2 404.54,-476.3 z m -937.57,-211.6 c 283.77,165.7 630.69,190.8 912.32,189.9 -132.23,155.8 -267.4,314.9 -404.56,476.3 -138.69,22.9 -313.92,42.8 -462.92,5.3 -13.96,-218.9 -28.83,-442.5 -44.84,-671.5 z m -419.08,861.3 c -209.26,-155.6 -417.32,-310.3 -623.02,-463.3 321.95,-22.1 753.54,-150.6 1009.04,-392.7 16.06,229.8 30.97,454.1 44.97,673.8 -104.85,136 -237.29,154.8 -377.47,174.4 -17.8,2.5 -35.66,5.1 -53.52,7.8 z m -113.46,381.8 c 76.5,-89.8 119.38,-203 125.76,-331.1 133.52,99.3 267.49,198.9 401.6,298.6 -175.17,10.8 -351.12,21.6 -527.36,32.5 z M 2607.13,4162 c 6.75,-1 13.52,-2 20.26,-3 131.2,-18.4 266.47,-37.6 375.9,-159.1 10.26,162.1 20.07,321.9 29.27,478.4 -142.07,-105.6 -284,-211.2 -425.43,-316.3 z m -153.8,387.1 c 184.79,-11.4 369.24,-22.7 552.84,-34 -123.46,145.2 -247.62,291.1 -371.94,437.2 -4.96,-113.2 -38.83,-241.3 -180.9,-403.2 z m 651.38,1315.5 c -200.28,-207 -492.59,-280 -755.49,-280 -78.97,0 -154.88,6.9 -225.2,18.3 166.51,-195.5 334.11,-392.3 501.26,-588.7 174.22,13.2 328.37,74.7 446.77,178.2 12.02,231.4 22.88,455.6 32.66,672.2 z m -1.27,-710.4 c -10.3,-197 -21.43,-399.2 -33.48,-606.6 181.02,134.6 362.16,269.3 542.66,403.4 -177.75,27.3 -333.94,89.7 -509.18,203.2 z m 1181.73,296.6 c -204.89,35.7 -732.44,149.7 -1146.49,427.3 -9.93,-220.8 -20.98,-449.4 -33.24,-685.7 188.55,-124.7 352.56,-188.9 544.82,-213.4 213.05,158.3 425.1,315.9 634.91,471.8 z m -615,-976.4 c -56.5,127 -68.7,268.3 -38.72,449.1 -184.67,-137.3 -370,-275.1 -555.19,-412.7 199.36,-12.3 397.57,-24.4 593.91,-36.4 z m -182.16,-474.8 c 3.14,210.3 54.67,349.8 163.38,442.6 -188.22,11.5 -378.16,23.1 -569.15,34.8 136.87,-161 272.41,-320.4 405.77,-477.4 z m -452.36,532.2 c 12.27,210.6 23.59,415.8 34.06,615.7 -114.7,-91.6 -257.9,-147.8 -418.24,-164.1 128.63,-151.1 256.91,-301.9 384.18,-451.6 z m -0.3,-553.2 c 138.84,32.3 295.87,19 427.68,-0.9 -131.48,154.7 -264.66,311.4 -398.89,469.2 -9.05,-153.1 -18.73,-309.7 -28.79,-468.3 z m 874.33,1151.6 c -79.7,-59.2 -159.6,-118.6 -239.65,-178.1 -37.79,-198.6 -26.06,-347.4 37.55,-479.9 103.18,-6.3 205.81,-12.5 307.81,-18.7 -59.24,167.7 -139.75,451 -105.71,676.7 z m -705.53,2627.6 c -6.48,-270.9 -14.93,-564.5 -25.71,-879 563.67,-446 1357.93,-798.8 1895.61,-841.9 313.1,232.6 616.84,458.1 906.54,673.3 -1814.75,379.7 -2293.47,664.3 -2776.44,1047.6 z M 4820.06,10106 C 4423.11,9567.9 3906,8825.7 3277.51,7891.8 c -30.93,-45.9 -53.23,-79 -65.74,-97.5 486.39,-387.7 956.45,-672.8 2804.57,-1057.6 633.29,470.3 1197.9,889.4 1643.41,1220 -72.63,475.1 -144.1,949 -213.85,1415.3 -464.67,317 -1160.49,603.4 -1734.95,713.6 -361.21,69.3 -669.18,76.3 -890.89,20.4 z m -1102.73,2231.9 c 591.11,-411.2 961.67,-1411.3 1105.32,-2172.4 76.64,103.5 149.17,200 216.49,287.7 96.33,125.5 194.83,253.7 294.85,383.8 -28.31,538.1 -238.51,1292 -739.03,1660 -308.45,-54.3 -601.42,-107.6 -877.63,-159.1 z m 2669.1,4029.3 C 5903.71,15565.4 4762.78,15337.7 4178.44,15327 c 253.22,-223.1 535.9,-472.1 839.58,-739.6 265.62,-14.5 1054.69,-53.7 1535.95,758.3 -58.91,372.9 -114.76,714.6 -167.54,1021.5 z m 2745.2,-609.2 c -191.48,-57.6 -389.7,-82.4 -587.91,-82.4 -966.2,0 -1932.58,577.9 -2124.89,699.8 29.28,-170.2 59.54,-351.4 90.72,-542.5 184.35,-168.9 1286.82,-815.3 2233.69,-576.3 142.1,183.6 272.44,351.8 388.39,501.4 z m 30.34,-15.3 c -202.06,-260.6 -448.15,-578.5 -724.07,-935.2 106.37,-519.5 586.04,-1187.2 994.08,-1539.6 396.91,51.6 803.22,102.5 1218.32,152 -898.65,426.4 -1469.55,1628.4 -1488.33,2322.8 z M 11680.3,14808 9668.58,16394.4 c -87.55,-111.8 -252.28,-323.7 -474.1,-609.8 -3.92,-690.1 585.07,-1949.7 1518.52,-2357.3 120.4,14.3 241.4,28.6 363.3,42.6 70.7,156.9 143.3,316.2 216.2,476.4 129.7,284.3 263.4,578 387.8,861.7 z m 3190.8,-2516.1 -3163.8,2494.8 c -123.5,-281.5 -255.9,-572.4 -384.4,-854.3 -73,-160 -145.5,-319.2 -216.2,-476 377,-623 1331.6,-2009.5 1460.4,-2196.3 865.2,-31.9 1886.2,573.5 2304,1031.8 z m 12.1,-35.7 c -418.7,-449.7 -1397.9,-1030.7 -2250.8,-1030.7 -10.3,0 -20.4,0.4 -30.6,0.6 275.4,-254.7 563.5,-522.2 859.3,-797.6 561.8,-96.9 1271,246.1 1553.5,750.8 -44.7,368 -88.7,728.9 -131.4,1076.9 z M 16977,10686.4 c 180.8,221.6 365.3,448.5 553.6,680.9 -69.8,-12.7 -169.8,-24.8 -299.2,-24.8 -449,0 -1246.1,145.7 -2314.9,915.8 42.6,-347.2 86.5,-707.2 131.1,-1074.3 242.5,-228.3 608.4,-409.4 1005.5,-497.2 435.4,-96.3 624.1,-57.8 790.6,-23.9 44.9,9.2 87.6,17.6 133.3,23.5 z M 17617.5,8985 c -549.1,452.8 -634.7,1318.9 -646.9,1640.9 -108.7,-133.2 -216.5,-265 -322.4,-394.2 46.8,-508.5 251.7,-945.5 608.9,-1299.1 124.1,17.9 244.3,35.3 360.4,52.4 z M 15805,5176.3 c 500,778.8 1566.3,986.5 2136.7,991.6 -238.8,226.2 -497.8,471.3 -771.6,730.2 -8,0.7 -15.5,1.4 -23.9,2.2 -359.7,34 -1028.6,97 -1489.8,-630.4 52.2,-397.7 102,-766 148.6,-1093.6 z m -2701.7,899.1 c 747.1,196.9 1690.4,-122.5 2664.8,-904.7 1.8,-1.4 2.9,-2.4 4.6,-3.7 -23.9,168 -48.6,346.7 -74.1,534.6 -300.8,301.9 -1411.1,1005.3 -2179.5,836.3 -144.2,-162.2 -282.5,-315.9 -415.8,-462.5 z m -34.7,11.3 c 228.5,251.2 473,525.2 733.5,822.1 -92.6,534.5 -543.9,1108.5 -911.2,1446.8 -403.1,-42.6 -817.6,-84.2 -1241.9,-124.2 937.1,-469.8 1418,-1520.8 1419.6,-2144.7 z M 9347.26,8038.9 11841.3,4808.3 c 329.3,316 727.6,730.2 1193.6,1241.4 18.6,619.5 -472.8,1715.4 -1448.8,2175.7 -721.4,-67.7 -1470.6,-130.9 -2238.84,-186.5 z M 7497.79,9250.5 c 63.48,-423.8 128.34,-853.2 194.14,-1283.7 885.05,48.6 1753.77,109.3 2594.17,177.9 l 343,1464.4 c -252.7,221.4 -536.7,470.5 -842.23,738.7 -841.92,5.6 -1895.14,-632.1 -2289.08,-1097.3 z m -6.47,43.2 c 397.8,452.5 1397.4,1074.2 2258.06,1087 -281.96,247.5 -582,511.1 -892.94,784.4 -556.83,79 -1251.61,-289.6 -1523.41,-807.9 51.54,-348.1 104.41,-703.6 158.29,-1063.5 z m -2131.78,1521.9 c -99.72,-129.8 -197.92,-257.6 -293.96,-382.7 -66.86,-87.1 -138.87,-183 -214.94,-285.6 222.85,47.1 521.12,37.3 866.6,-29 568.32,-109 1254.23,-389.4 1722.03,-701.9 -47.36,316.8 -93.87,629.8 -139.38,937.1 -113.99,109.6 -737.51,640.9 -1940.35,462.1 z m -720.07,1689.2 c 480.29,-372.1 689.56,-1094.3 725.5,-1627.4 103.35,134.4 208.41,271 314.62,409.1 -61.33,507.6 -280.34,940.2 -651.16,1285.9 -132.27,-22.7 -261.84,-45.2 -388.96,-67.6 z m 1922.43,2790.5 c -469.33,-756 -1203.68,-757.8 -1503.61,-743.4 212.3,-187 434.38,-382.6 663.43,-584.3 322.64,-18.8 701.05,123.6 987.64,372 -51.08,336.8 -100.22,655.9 -147.46,955.7 z m 1850.91,-465.7 c 103.79,134.2 203.28,262.7 297.89,385 -133.78,-30.2 -270.38,-43.6 -406.73,-43.6 -787.42,0 -1569.5,440.8 -1786.18,611.4 22.81,-140.4 46.11,-286 69.91,-436.6 577.34,-546.4 1319.98,-625.4 1825.11,-516.2 z m 975.1,-1567.4 c -395.13,349.6 -856.9,980.5 -976.66,1510.8 -193.02,-249.5 -400.02,-517.3 -616.42,-797.5 62.94,-303.3 158.91,-641.7 385.35,-877.5 391.5,55.3 794.4,110.2 1207.73,164.2 z m 3.52,-33.2 c -413.83,-54 -817.25,-109 -1209.17,-164.4 -221.78,-340.1 -242.29,-799.4 -191.67,-1093.8 228.13,-200.7 454.07,-399.4 675.47,-594 33.99,829.9 593.86,1666.6 725.37,1852.2 z M 7324.94,10411.8 c 282.96,494.1 940.89,844.3 1487.24,792.2 -274.22,241 -556.66,489.4 -842.44,740.7 -279.02,-39.8 -527.85,-230.9 -782.3,-601.1 44.57,-302.7 90.47,-614 137.5,-931.8 z m -1936.58,441.3 c 1114.26,154.7 1731.72,-295.6 1903.78,-447.3 -47.58,321.5 -94.01,636.4 -139.09,942.5 -202.82,212.5 -609.65,531.9 -1107.8,358.7 -223.24,-290 -443.62,-576.4 -656.89,-853.9 z m 151.69,1805.7 c -160.3,-26.6 -317.28,-53.1 -470.91,-79.4 357.64,-340.7 572.39,-762.8 638.96,-1255.8 103.31,134.3 207.68,269.9 312.68,406.2 -6.71,312.3 -136.27,738.7 -480.73,929 z M 6715.19,14301 c -273.3,-230.6 -624.45,-368.4 -935.73,-368.4 -6.25,0 -12.37,0.5 -18.59,0.6 107.3,-94.5 216.05,-190.3 325.97,-287.1 l 0.01,0.4 c 248.24,-2.4 560.82,174.3 688.69,254.2 -20.41,136.1 -40.51,269.4 -60.35,400.3 z m 1058.91,-297.8 c 213.32,276.2 417.47,540.3 608.02,786.7 -116.27,-22.5 -243.33,-35.9 -377.9,-35.9 -447.64,0 -971.55,142.4 -1408.29,539.5 47.45,-301.3 96.83,-622.1 148.16,-960.6 218.53,-169.5 568.01,-360.3 1013.22,-330.7 7.07,0.5 12.63,0.9 16.79,1 z m 366.13,-910.9 c -213.89,233.4 -309.68,555.1 -372.16,848.6 -121.9,-157.8 -246.63,-319.4 -373.38,-483.6 6.97,-146.5 16.65,-326 82.59,-460.9 217.08,32 438.09,64 662.95,95.9 z m -959.87,-1700.7 c 161,229.5 407.97,518.4 757.53,581.2 -193.67,170.3 -388.78,341.9 -583.87,513.6 -140.98,-32.3 -235.73,-94.4 -305.3,-200.5 24.52,-166.4 49.37,-335.3 74.55,-506.4 18.75,-127.4 37.82,-257 57.09,-387.9 z m -1099.32,361.9 c 469.04,137.2 853.06,-139.5 1063.75,-349.1 -18.38,124.9 -36.59,248.6 -54.49,370.2 -25.21,171.3 -50.09,340.4 -74.63,507 -155.19,90.2 -303.69,115.8 -465.76,80.5 -156.59,-203.2 -313.34,-406.6 -468.87,-608.6 z m 170.02,1021 c -225.85,-36 -446.18,-71.8 -660.71,-107.3 316.77,-197 445.86,-590.4 462.15,-896.2 155.57,202.1 312.37,405.6 469.02,608.9 -48.77,164.8 -139.69,297.5 -270.46,394.6 z m 31.04,38.7 c 194.39,30.9 392.68,61.9 595.01,92.9 -170.76,150.3 -340.56,299.7 -508.35,447.4 6.12,-117.3 -2.35,-313.7 -86.66,-540.3 z m 498.81,1051.6 c -130.64,-80.5 -414.84,-237.6 -658.08,-250.3 76.89,-67.7 154.31,-135.9 232.2,-204.5 190.38,4.9 348.8,55.7 471.3,151 -15.29,102.5 -30.43,203.8 -45.42,303.8 z m 586.52,-388.2 c 129.01,167.1 255.93,331.5 379.9,492 -27.78,-1.7 -55.37,-2.8 -82.39,-2.8 -392.42,0 -705.59,164.5 -913.66,319.5 35.32,-233.2 71.53,-474.6 108.65,-723.6 154.37,-141.4 351.13,-120.8 507.5,-85.1 z m 75.63,-485.3 c -59.23,127.6 -72.65,287.1 -79.72,425.4 -125.62,-162.7 -253.15,-328 -381.71,-494.7 151.74,23.1 305.49,46.3 461.43,69.3 z m -401.35,-657.8 c 68.24,90.5 157.66,147.2 282.02,179.5 -118.33,104.2 -236.61,208.3 -354.53,312 23.84,-161.3 48.01,-325.2 72.51,-491.5 z m -137.25,543.1 c -207.06,-31.7 -410.06,-63.4 -608.83,-95 117.49,-94.8 201.56,-218.9 250.48,-369.8 119.82,155.4 239.48,310.6 358.35,464.8 z m -324.29,-475.2 c 146.97,23.9 288.23,-2.1 429.43,-78.6 -26.63,180.8 -52.86,358.6 -78.71,533.4 -116.34,-150.8 -233.45,-302.7 -350.72,-454.8 z m 372.23,537.3 c 129.17,167.5 257.32,333.5 383.54,497.1 -54.53,-10.9 -112.68,-19.1 -171.89,-19.1 -100.68,0 -204.07,23.5 -296.69,95.2 27.83,-186.9 56.2,-378.2 85.04,-573.2 z m -120.53,585.1 c -118.21,-86.8 -266.26,-135.5 -441.06,-145.3 174.64,-153.7 351.47,-309.4 529.3,-465.9 0.79,0.2 1.6,0.3 2.39,0.4 -30.77,208.1 -61,411.9 -90.63,610.8 z m 596.48,-568.3 c -158.24,-23.5 -314.14,-46.9 -468.02,-70.4 0.44,-3 0.88,-6 1.33,-9 125.82,-110.8 252.1,-221.9 378.44,-333.1 -8.34,141 -13.21,275.2 88.25,412.5 z m 711.11,103.1 c -224.88,-31.9 -445.9,-63.9 -662.98,-96 -119.44,-140.9 -111.66,-274.7 -102.42,-429.2 l 1.24,-21.3 c 192.53,-169.4 385.08,-338.8 576.24,-507 -42.12,293.7 -15.4,723.2 187.92,1053.5 z m -2567.99,-360.8 c 218.35,36.2 442.7,72.7 672.79,109.4 97.58,251.9 98.28,467.1 88.98,577.6 -201.75,177.6 -400.46,352.6 -594.42,523.4 12.3,-287.4 1.63,-785 -167.35,-1210.4 z m 4487.33,616.3 c -209.8,-26.1 -417.21,-52.6 -622.1,-79.2 -82.14,-112.7 -714.94,-1008.5 -738.53,-1886.3 159.17,-139.9 315.96,-277.7 469.32,-412.5 -3.09,665.5 451.64,1653.8 891.31,2378 z m 614.8,75 c -192.8,-23 -383.6,-46.2 -572.6,-69.7 -427.87,-700.1 -917.26,-1747 -899.95,-2412.8 199.14,-174.9 392.51,-344.8 577.98,-507.6 -17.47,249 6.29,554 70.03,886.3 151.54,790.1 451.44,1553.9 824.54,2103.8 z M 12536,11246.6 c -142.4,206.4 -1081.4,1570.9 -1456.4,2190.2 -121.6,-14.1 -242.3,-28.3 -362.5,-42.5 -378,-547.8 -682.4,-1318.1 -835.3,-2115.3 -66.06,-344.3 -89.33,-659.2 -67.41,-911 302.21,-265.3 583.01,-511.6 833.41,-730.9 z m 7,-37.9 L 10662.6,9605.9 10321,8147.6 c 432.6,35.5 857.7,73 1273.5,112.1 634.1,865.3 974.5,2280.4 948.5,2949 z m 624.8,-552.9 c -2.8,-115.7 -19,-244.2 -49.9,-384.1 -99.2,-448.4 -342.7,-1019.8 -723.9,-1698.5 -53.5,-95.4 -98.8,-167.1 -153.3,-250.9 218.2,21.8 433.4,43.9 645.5,66.3 321.8,425.3 580.7,981.4 693,1489.1 26.8,121.5 43.4,238.7 49.7,348.8 -155.7,145.1 -309.6,288.5 -461.1,429.3 z m 1853.4,468.7 c -267,-436.7 -846.4,-745.7 -1363.8,-745.7 -51.9,0 -103,3.1 -153.2,9.5 269.4,-251 544.9,-508.3 822.5,-768.1 282.1,30.6 538.6,215.7 806.5,582 -16.1,132.2 -32.1,264.4 -48.1,396.4 -21.5,176.5 -42.7,351.9 -63.9,525.9 z m 1924.3,-476.6 c -31.6,-5.2 -62.9,-11.1 -95.1,-17.6 -89.6,-18.3 -185.6,-37.8 -321.2,-37.8 -121.4,0 -274.4,15.6 -483.4,61.8 -387.3,85.6 -745.7,259.3 -992.1,479.1 21.4,-175.7 42.8,-352.7 64.5,-530.8 16.2,-134.1 32.5,-268.5 48.9,-402.9 156.9,-174.5 568.2,-547.3 1098.4,-380.8 220.4,267.3 447,543.5 680,829 z m -215.2,-1789.7 c 167.8,23.3 330,46.2 486,68.6 -344.4,348.3 -545.3,774.9 -597.7,1268.9 -110.6,-134.8 -219.4,-267 -327,-397.5 -2.9,-329.9 110.6,-747.8 438.7,-940 z M 15649.8,6320.3 c 463.5,697.1 1139.1,646.9 1481.1,614.9 -205.9,194.6 -419.8,396.7 -639.6,604.1 -324,19.8 -678.5,-100.4 -956.4,-325.3 39.2,-310.1 77.7,-609.4 114.9,-893.7 z m -1820.6,568.9 c -93.3,-106.4 -184.8,-210.1 -274,-310.6 753.7,133.1 1799.1,-510.4 2136.2,-823.8 -22.2,163.8 -44.9,334.3 -68,510.7 -488.3,490.5 -1191.2,734.9 -1794.2,623.7 z M 12935,8360.3 c 376.3,-352.1 793.8,-895.4 895,-1419.7 194.9,222.4 398.6,457.3 611.1,704.9 -62.4,353.7 -123.6,622.6 -325.6,845.9 -380.5,-44.2 -774.6,-88.1 -1180.5,-131.1 z m 1374.8,1230 c -218.5,204.5 -435.6,407.5 -649.6,607.1 -7.5,-104 -23.4,-213.5 -48.5,-326.9 -111.1,-502.4 -364.6,-1051.5 -680.6,-1477.1 406.1,43 800.2,86.9 1180.8,131.1 198.9,287.1 242,750 197.9,1065.8 z m 829.2,564.1 c -257.7,-343.9 -507.4,-524.1 -781,-563.5 187.1,-175.2 375.2,-351.5 563,-527.8 138.4,26.1 247.8,95.7 325.6,206.7 -35.8,293.4 -71.7,589 -107.6,884.6 z m 1089.6,-380.3 c -79.8,-20.7 -157,-30.6 -230.8,-30.6 -382.5,0 -677.2,246.4 -823.9,400 35.2,-290.2 70.5,-580.3 105.7,-868.3 120.3,-75.4 258.6,-138.3 451.2,-101.8 162.1,194.8 328.1,395.1 497.8,600.7 z m -204.1,-1011.7 c 227,30.1 445.5,59.8 655.4,88.8 -301.5,199.1 -415.2,586.4 -421.3,907 -170.6,-206.8 -337.6,-408.4 -500.7,-604.3 41.2,-153 130.8,-284.7 266.6,-391.5 z M 16112,7897 c -76.3,71.9 -153.1,144.4 -230.4,217.1 -185.2,-1.9 -323.7,-42.3 -443.2,-130.1 12.8,-103.1 25.6,-205.5 38.2,-306.9 226.6,130.3 458,210 635.4,219.9 z m -582,-644.5 c 270.5,212.9 608.8,330.6 923.9,322.1 -101.4,95.7 -204,192.4 -307.6,290.1 -179.6,-1 -424.6,-83 -665.2,-223.5 16.4,-131.2 32.7,-260.9 48.9,-388.7 z m -1063.1,372 c -209.4,-244.1 -410.4,-476 -602.8,-695.6 591.4,93.1 1269.1,-142.7 1752.2,-609.9 -37.1,283.5 -75.4,581.8 -114.5,890.9 -219.6,182.1 -468.8,307.9 -721,363.7 l -35.1,7.8 c -89.1,20.1 -189.4,42.7 -278.8,43.1 z m 347.7,950.2 c -214.6,-26.2 -434.4,-52.5 -658.9,-78.6 190.4,-220.4 253.3,-481 313.4,-817.9 133.6,155.9 270.7,316.7 411.2,482.4 l -0.1,5.7 c -3,155.2 -5.8,278.8 -65.6,408.4 z m 34.4,4.2 c 54.2,-123.1 61,-244 63.8,-379.9 119.5,141 241.2,285.2 365.6,433.3 -140.6,-17.8 -283.8,-35.5 -429.4,-53.4 z m 403.4,643.4 c -76.4,-95.8 -177.9,-158.4 -302.2,-186.6 122.7,-115.2 245.2,-230.3 367.3,-345 -21.6,175.9 -43.3,353.3 -65.1,531.6 z m 446.6,-87.2 c -27.3,-3.6 -53.9,-5.9 -79.1,-5.9 -134.1,0 -240.4,46.9 -335.2,103.8 21.2,-173.6 42.3,-346.3 63.4,-517.6 115,137.1 231.7,276.6 350.9,419.7 z m 280.6,-378.6 c -121.5,102.4 -204.5,225.4 -247.2,366.7 -127.1,-152.6 -251.4,-301.3 -373.8,-447.2 213.1,27.1 420.2,53.9 621,80.5 z m -545.9,-735.2 c 114.4,79.5 244.6,119.5 413.3,125.5 -160.2,150.8 -322.2,303.3 -485.2,456.5 24.2,-196.2 48.2,-390.5 71.9,-582 z m -35.1,12.8 c -24.6,197.8 -49.4,398.4 -74.3,601.1 -132.1,-157.4 -261.4,-310.6 -388.1,-460.1 93.3,1.8 308.8,-15.6 462.4,-141 z m -491.9,106.1 c -140.6,-165.8 -277.8,-326.8 -411.6,-482.8 85.2,-4 176.3,-25.1 257.9,-43.4 l 35,-7.9 c 247.1,-54.6 490.8,-175.4 707.8,-349.1 -29.9,236.5 -60.3,479.5 -91,726.8 -168.8,163.8 -444.2,163.2 -498.1,156.4 z m -41.1,474.3 c 144.9,17.8 287.6,35.6 427.6,53.3 -116.7,109.7 -233.9,219.8 -351.3,330 5.3,-225.2 -3.5,-293.8 -76.3,-383.3 z m 1127,110.1 c -202,-26.7 -410.6,-53.8 -625,-81 174.9,-164.4 348.6,-327.9 520.3,-489.7 -12.4,277.4 63.8,474.3 104.7,570.7 z m -1837.8,-195.1 c 225.4,26.3 446.2,52.7 661.6,79 89.7,98.8 98.9,140.3 91.3,421.4 -186.7,175.2 -373.7,350.5 -559.8,524.8 35,-311.5 -10.6,-742 -193.1,-1025.2 z m 2542,290.4 c -213.1,-29.5 -435.1,-59.6 -665.8,-90.2 l -0.2,-0.5 c -38.1,-88.7 -127.4,-296.3 -108.6,-596.9 l -10.6,-0.7 c 83.2,-78.3 165.9,-156.2 248,-233.6 3.9,-0.1 8,0.1 11.9,-0.1 l -0.4,-10.7 c 112.5,-106.1 223.8,-211.1 333.8,-314.9 -6.4,295.2 12.4,826.9 191.9,1247.6 z m -5058.4,-556.1 c 188.5,17.8 375.2,35.9 559.8,54.3 60.8,93.2 109,168.5 166.8,271.4 379.5,675.8 621.9,1244.2 720.3,1689.4 33.1,149.6 49.8,286.3 50.1,407 -190.6,177.2 -377.4,350.3 -558.5,517.8 27.9,-748.1 -358.9,-2132 -938.5,-2939.9 z m -7007.45,4273.4 c 287.75,50.6 588.81,102.1 902.47,154.3 186.64,455 182.41,1015 170.64,1247.3 -230.97,203.4 -454.84,400.5 -668.8,589 60.81,-549.9 -105.56,-1371.1 -404.31,-1990.6 z M 17624.2,8952.3 c -274.1,-40.3 -571.4,-82.9 -889.1,-127 -188.2,-426.2 -204.1,-978.2 -196.6,-1270.7 l -14.5,-0.4 c 227.4,-214.5 448.4,-423.3 660.7,-624 2.5,-0.2 5.3,-0.5 7.8,-0.7 -48,499.6 98.9,1377.7 431.7,2022.8 z m -13508.71,6354.6 -0.07,9.9 c -191.41,-28 -683.15,-121 -1082.46,-196.5 -110.7,-20.9 -213.44,-40.3 -300.25,-56.6 -403.65,-981.7 -720.11,-1713.1 -951.33,-2247.4 -179.02,-413.6 -310.63,-717.9 -389.15,-923 504.99,118.8 1280.49,283 2275.73,469.3 463.1,935 451.82,2394.2 447.53,2944.3 z m -407.05,-2936.8 c 277.6,51.8 572.17,105.3 882.34,160 309.53,630.5 480.05,1480.6 407.28,2030.4 -307.51,270.9 -593.51,522.9 -849.24,748.2 l 0.01,-1.5 c 4.27,-548 15.22,-1994.2 -440.39,-2937.1 z m 4968.32,-8119.9 20.51,-2.9 597.99,3787.9 C 8766.04,7997.2 8227.92,7962.7 7683.63,7932.9 7237.28,7601.7 6670.88,7181.3 6035.31,6709.3 5905.52,6104.6 5872.1,4927.4 6560.47,4307.2 c 1117.39,-58.8 1920.76,-89.3 2122.28,-66.1 z M 10363.4,751.301 c 159.1,113 319.6,226.898 480.8,341.199 v 0 c -211.6,40.2 -421.4,80 -627.8,119.2 128.7,-164.1 176.1,-312.2 147,-460.399 z M 15779.6,5119 c -7.9,6.1 -18.3,14.4 -32.4,25.7 -988.1,793.2 -1941.7,1107 -2685.9,884.4 -470.4,-515.9 -872,-933.5 -1203.4,-1251.1 378.1,-770.7 1427.1,-1397.6 2015.8,-1540.5 782.1,554.7 1474.4,1048.1 1975.1,1412.1 -22.1,144.3 -45.2,301.7 -69.2,469.4 z M 17579.5,0 h -40 c 69.4,99.8008 126.5,195.102 168.8,281.5 -111.5,267.301 -221.5,531 -329.1,788.5 l -3083.5,-621.5 5.3,-10.699 -3.3,0.699 L 14473.6,0 h -35.9 l -174.1,433.902 C 14096.7,307.602 13927.7,160.602 13767.1,0 h -46.7 c 164.7,166.898 338.7,319.801 510.7,451.102 -255.9,48.296 -521.9,98.597 -794.9,150.3 l 5,-8.8 C 13201.2,456.898 12931.3,251.5 12710.5,0 h -43.8 c 219.9,256.402 490.9,466.801 734.5,608 -170.5,32.301 -343.6,65 -518.5,98.102 l 4.8,-7.301 C 12609.3,515.801 12385.1,278.602 12222.8,0 h -38.4 c 161.6,283.199 385.8,524.902 664.3,712.602 -170.7,32.3 -343,64.898 -516.2,97.699 l 3.8,-7.399 C 12070.8,664.699 11759.7,374.902 11717.4,0 h -33.9 c 40.7,376.801 342.5,669.902 610,817.699 C 12039,865.902 11782.7,914.5 11527,963 l 2.2,-2.5 c -132,-121.398 -216.1,-268.602 -244.3,-425.898 132,-183 261.6,-361.5 388.1,-534.602 h -41.2 c -121.5,166.301 -245.6,337.301 -372.1,512.602 -275.1,-25.899 -463.4,-118.5 -554.6,-174.2 -29.6,-113.703 -58.9,-226.504 -88,-338.402 h -34.5 c 0.4,1.30078 0.7,2.60156 1,3.90234 C 10472,226.102 10187.7,418 10061.1,495.5 9954.1,419.398 9847.96,343.902 9742.83,269 9893.82,203.199 10034.8,110.199 10156.4,0 h -49.5 C 9989.31,101.5 9854.57,186.5 9711.23,246.5 9594.6,163.402 9479.55,81.3008 9365.73,0 h -57.28 c 126.8,90.6016 255.45,182.402 385.78,275.199 68.65,342.903 2.36,732.501 -182.47,1070.601 -340.31,64.8 -666.02,126.9 -970.05,185 C 8660.34,1374.5 9061.6,778.402 8963.55,0 h -33.2 c 107.32,837.5 -374.13,1461.6 -438.32,1540.3 -165.29,31.6 -323.89,62 -474.72,91 164.12,-199.4 285.17,-439.6 368.29,-733.8 C 8436.89,716 8508.94,352.902 8529.72,0 h -34.53 c -19.9,338.102 -86.15,692 -141.66,888.5 -86.14,304.9 -212.88,551.1 -387.25,752.5 -230.64,44.3 -442.23,85.1 -630.41,121.5 250.61,-262.3 425.82,-577.6 534.51,-962.398 44.52,-157.5 95.94,-468 128.37,-800.102 h -33.32 c -32.23,328.402 -83.06,635.102 -127.12,791.102 -111.93,396.098 -295.06,717.498 -559.67,982.498 -104.81,20.3 -201.96,39.2 -290.35,56.4 L 5418.31,1706 C 5551.22,1130.5 5648.18,558.199 5737.89,0 h -33.77 C 5614.33,558.602 5517.22,1131.4 5383.99,1706.9 4715.12,1849.8 3393.36,1546.4 2783.2,744.301 2760.73,500.199 2737.02,251.801 2712.28,0 h -33.48 c 22.43,228.102 44.02,453.602 64.58,675.402 L 714.441,505.199 c -55.5,-130.097 -112.73,-264 -171.5,-401.398 C 558.488,69.6016 574.914,34.9023 591.781,0 H 554.758 C 544.715,21 534.852,41.8008 525.289,62.5 516.477,41.8984 507.438,20.8008 498.559,0 h -36.25 c 9.617,22.5 19.398,45.3008 28.941,67.6016 C 440.063,42.8008 383.469,20.1992 321.906,0 H 202.965 C 322.051,31 425.891,69.6016 511.746,115.602 571.105,254.398 628.953,389.801 684.977,521 L 0,2181.8 v 169.9 C 49.0664,2638.4 43.9219,2961 0,3279 v 202.5 C 77.0352,3073.2 95.0234,2643 20.1641,2278.2 312.422,2496 622.059,2726.6 943.684,2966 1140.92,3501.2 929.68,4263.9 480.789,4637.5 318.715,4647.5 158.32,4657.3 0,4667 v 33.4 c 159.027,-9.7 320.129,-19.6 482.941,-29.6 133.512,91 777.059,591 855.689,1801.6 -192.8,225.8 -380.212,445.2 -559.415,654.7 -0.434,-246.9 -72.41,-556 -200.504,-857.5 C 438.723,5940.1 230.449,5585.1 0,5270.8 v 56.2 c 218.188,303 414.406,641.1 548.047,955.7 133.433,314 205.082,635.7 197.183,884.1 C 474.426,7483.3 222.984,7776.7 0,8036.1 v 51.4 c 229.359,-266.7 489.395,-570.1 769.719,-897.8 414.851,-13.5 1772.861,-6.7 2398.631,606.2 -80.36,183.2 -1270.55,2864.7 -1806.87,4043.3 L 0,10285.4 v 50.6 l 1328.62,1516.3 c -398.28,5.3 -862.354,5.3 -1328.62,2.1 v 33.3 c 470.828,3.2 939.43,3.2 1340.41,-2.2 -124.15,272.4 -209.54,455.8 -231.85,494.9 -113.4,198.9 -316.466,634 -578.982,1226.5 -135.183,52.3 -323.758,99.1 -529.578,138 v 33.6 c 195.164,-36.6 375.465,-80.2 510.695,-128.9 -69.355,156.8 -142.773,324.4 -219.632,501.2 l -0.567,-1 c -79.633,45.3 -179.516,83 -290.496,114 v 34.2 c 100.828,-27.7 193.23,-60.6 270.391,-99.7 -57.961,133.5 -117.868,272.1 -179.4535,415.2 -30.2109,17 -60.5508,32.7 -90.9375,47.8 v 37.1 c 23.2656,-11.3 46.5,-23 69.6719,-35.4 -22.9297,53.3 -46.293,107.8 -69.6719,162.3 v 84.6 c 34.2852,-80.1 68.2227,-159.2 101.566,-236.8 267.336,836.8 956.974,1011.9 1270.714,1075.1 -249.59,127.4 -514.089,262.4 -789.62,403 C 382.996,16112 178.238,16005.7 0,15854.8 v 42.9 c 165.469,135.2 351.898,233.2 536.121,277.3 -126.953,64.8 -256.078,130.7 -387.047,197.5 C 99.4844,16359.9 49.3477,16339.2 0,16313.9 v 37.1 c 35.0039,17.2 70.3555,32.3 105.684,43.6 -34.9301,17.8 -70.5199,36 -105.684,53.9 v 37.5 c 189.555,-96.7 375.898,-191.8 557.574,-284.5 -68.777,230.9 -192,735.7 -128.812,1215.3 C 286.961,17354.4 143.766,17291.9 0,17229.5 v 36.1 c 109.867,47.7 219.391,95.5 328.141,143.2 25.097,11 49.863,21.9 74.82,32.9 -161.848,51.5 -295.895,151 -402.961,271.4 v 50.6 c 114.902,-138.6 264.328,-252.7 449.531,-301.5 16.098,7.1 32.375,14.2 48.418,21.3 130.086,57.3 259.082,114.6 387.27,171.8 C 492.297,17877.9 189.387,18206 0,18611.1 v 80.3 c 186.832,-437 504.203,-788.1 922.879,-1019.3 120.951,54 240.831,108 359.951,161.8 -563.568,246.7 -945.642,895.9 -1111.041,1403.3 C 115.254,19105.4 57.8477,18971.6 0,18836.9 v 84.5 c 48.0078,111.8 95.7539,223.1 142.824,332.8 C 94.4609,19234.6 46.9063,19216.6 0,19199.9 v 35.5 c 52.9805,19.1 106.629,39.5 161.5,62.4 103.336,240.9 203.844,475.6 300.793,702.2 h 36.266 c -98.766,-230.9 -201.262,-470.1 -306.688,-716 158.992,-513.8 549.668,-1193.3 1132.089,-1431.5 17.06,7.7 34.28,15.4 51.3,23.1 263.05,119.2 513.42,234.2 757.27,347.6 -655.77,246.1 -1245.854,1084.2 -1577.78,1776.8 h 37.02 c 335.601,-695 929.02,-1531.4 1583.26,-1757 108.73,50.7 216.32,101.1 323.07,151.5 l -3.81,7.1 13.63,-2.5 c 0.97,0.5 1.96,0.9 2.93,1.4 61.25,548.2 116.96,1081.9 167.64,1599.5 h 33.5 c -50.91,-520.1 -106.89,-1056.5 -168.48,-1607.6 547.3,-102.3 2339.33,-443.2 3592.08,-747.7 -169.34,706.5 -280.8,1406.5 -388.42,2083.7 -14.32,90.1 -28.76,180.7 -43.33,271.6 h 33.75 c 14.29,-89.1 28.45,-178 42.49,-266.3 107.27,-675 218.4,-1372.7 386.75,-2076.2 158.43,167.7 849.19,687.6 1808.64,1383.8 37.18,243.3 23.88,613 -10.04,958.7 h 33.32 c 32.47,-332.7 45.89,-687.1 14.19,-931.5 141.46,102.6 288.57,208.9 440.55,318.4 47.34,160.6 55.24,383.2 41.71,613.1 h 34.52 c 12.46,-211.6 6.5,-419.4 -33.4,-582.3 119.23,85.9 241.27,173.6 365.91,262.9 33.15,109.4 54.85,215.9 68.1,319.4 h 33.34 c -11.79,-93.7 -30.51,-189.8 -58.14,-288.3 131.61,94.3 266.37,190.7 402.96,288.3 h 57.23 c -150.52,-107.5 -298.65,-213.4 -443.18,-317 869.86,-79.9 1178.36,-697.4 1315.16,-1008.1 71.3,273.8 146.1,561 223.4,858 -74.9,171.7 -199.6,333.7 -354.2,467.1 h 49.5 c 134.3,-121.8 244.9,-264.7 317.8,-416.5 35.7,137 71.9,276 108.4,416.5 h 34.5 c -38,-145.7 -75.5,-290 -112.4,-431.9 209.9,116.6 675.4,344.6 1160.5,386.2 -11,15 -22.3,30.6 -33.4,45.7 h 41.2 c 2.9,-4 5.9,-8.1 8.8,-12 0.4,4 1.2,7.9 1.7,12 h 33.9 c -2,-17.9 -4.1,-35.7 -4.8,-54 95.8,-130.9 190.1,-259 282.5,-384 47.6,154.8 111.1,301.2 189.1,438 h 38.6 c -85.2,-146.2 -153.7,-303.7 -203.2,-471.1 79.8,-107.8 158.5,-213.7 235.5,-316.9 57.2,289 213.6,557.2 411.5,788 h 43.8 c -210.1,-239.4 -375.8,-520.7 -428.3,-824.1 187.5,-250.9 366.5,-487.7 536.2,-709.8 72.4,515.3 451.7,1077.4 901.8,1533.9 h 47 c -459.7,-459.7 -849.7,-1031 -917.6,-1551.4 l 1945.2,661.5 -357,889.9 h 35.9 l 352.9,-879.7 c 281.9,-143 595.2,-302.1 930.4,-472.5 709.2,172.1 1417.2,826.3 1782.6,1352.2 h 40 c -359.5,-525.4 -1064.9,-1185.4 -1778,-1374.9 331.4,-168.5 683.5,-347.7 1048,-533.2 564.6,60.4 1152.7,589.4 1288.6,1159.1 -62.5,150 -124.9,299.6 -186.9,448.2 -41.9,100.6 -83.7,200.8 -125.4,300.8 h 36.1 c 40,-95.8 79.9,-191.6 120.1,-288 62.4,-149.6 125.1,-300.1 188.1,-451.1 133.4,-74.8 801,-396.1 1829.9,-25.5 v -35.5 c -360.5,-128.4 -677.4,-173.2 -942.9,-173.2 -444.2,0 -744.5,123.9 -866.8,185.7 120.4,-288.5 241.5,-578.8 362.5,-868.5 246.8,-156.3 721.1,-370 1163.5,-81.3 95.8,222.6 190.5,443 283.7,659.8 v -84.4 c -10.3,-23.9 -20.4,-47.5 -30.7,-71.5 9.7,-25.4 20.1,-50.3 30.7,-75.1 v -80.2 c -17.2,36.9 -33.9,74.2 -49.2,112.3 -67,-155.8 -134.7,-313.2 -202.9,-471.7 43,-157.5 127.1,-337.3 252.1,-488 v -50.7 c -131.9,148.3 -222.7,328.6 -272.7,490.9 -101,-234.8 -203,-471.4 -304.8,-707.8 89.8,-152.1 213.9,-264 359.6,-324.6 73.7,31.9 146.1,63.3 217.9,94.5 v -36.4 c -66.5,-28.9 -133.6,-58 -201.9,-87.5 -34,-274 15.8,-478 50.6,-579 50.7,-25.9 101,-51.6 151.3,-77.2 v -37.5 c -55.4,28.3 -110.6,56.5 -166.5,85 -188.9,-52.8 -321.1,-133.9 -415,-254.2 40.3,-95.5 80.3,-190.1 119.9,-283.9 90.8,93.2 270.3,261.4 461.6,355.6 v -37.1 c -188.1,-96.6 -364,-265.1 -447.5,-351.8 53.1,-125.7 105.5,-249.5 157.3,-371.5 83.4,115.3 182.4,219 290.2,307.1 v -42.9 c -102.4,-86.6 -196.2,-187.9 -275,-299.9 94.4,-222.3 186.1,-437.7 275,-645.3 v -84.1 c -98.7,230.1 -201,470.1 -306.6,718.9 -253.3,112 -642.8,214.6 -1070.9,75.4 -4.5,-1.5 -8.1,-2.7 -11.4,-3.7 -138.1,-319.6 -269.9,-624.7 -392.5,-908.1 449.5,210.9 1130.8,306.9 1781.4,-9.6 v -37.1 c -661.2,328.4 -1357,220.5 -1801.6,0 -67.3,-155.5 -131.5,-303.9 -192.3,-444.5 230.2,117.6 491,184.1 796.6,201.9 264.7,15.4 798.1,-11 1197.3,-120.7 v -34.2 c -395,110.6 -930.6,136.9 -1195.3,121.6 -316.8,-18.4 -584.8,-89.2 -819.3,-216.4 -94.6,-218.7 -180.4,-416.9 -255.4,-590.1 310.6,188.9 656.9,292.4 1056.8,315.7 244.6,14.3 767.8,-32.5 1213.2,-116.1 v -33.7 c -443.7,83.8 -967.7,130.8 -1211.2,116.5 -411.8,-23.9 -765.7,-133.9 -1082,-335.9 -172.1,-397.6 -282.2,-651.5 -301.8,-696.8 74.2,-143.8 176.2,-328.1 284.3,-523.2 85.2,-153.8 173,-312.5 246,-449.6 494.6,12.5 1282.7,26.6 2064.7,32 v -33.4 c -778.7,-5.3 -1563.6,-19.3 -2058.3,-31.8 l -0.1,-0.1 c -118.7,-147.1 -235.4,-291.4 -351.3,-434.5 80,-524.9 337.9,-1776.1 1021.6,-2251.9 143,22.5 273.9,43.5 391.5,62.5 L 20000,10336 v -50.6 l -961.2,-1097 c 71,-70.4 434.9,-488.8 961.2,-1100.8 v -51.4 c -551.1,641.2 -927.5,1074.2 -986.3,1130.3 -118.5,-19.2 -250.7,-40.3 -394.9,-63 -521.4,-983.9 -572.9,-2754.1 -577.1,-2953.2 l -16.6,0.3 -0.5,-15.4 c 813.2,-770.6 1379.6,-1309.8 1472,-1398.2 169.1,161.5 342.2,366.3 503.4,590.1 v -56.3 c -149.6,-204.1 -308.5,-391.2 -464.5,-542.3 152.4,-9.2 307.7,-18.6 464.5,-28.2 V 4667 c -158.3,9.7 -314.9,19.2 -468.7,28.5 202.5,-275.8 377.3,-729.4 468.7,-1214.1 v -202.3 c -77.9,564.3 -277.5,1113.5 -512.1,1419 -1721,103.8 -3124.4,181.1 -3639.6,179.3 11.8,-79.7 23.3,-156.9 34.6,-230.3 251.3,-515.6 965.1,-2217 1768.7,-4143.1 171,134.199 1088.8,820.5 2328.3,1744.2 7.6,33.8 14.1,68.4 20.1,103.4 v -169.7 l -12.5,30.4 C 18735.2,1279.1 17814,590.102 17664.9,472.102 c 41.1,-98.403 82.4,-197.403 123.8,-296.801 196.2,-71.899 426,-131.1994 668.4,-175.301 h -169.8 C 18115,37.3008 17951.8,82.1992 17806,133.902 17824.5,89.5 17843.2,44.6016 17861.8,0 h -36.1 c -33.6,80.6016 -67.1,161 -100.5,241.102 -38.5,-75.2 -87.8,-156.4028 -145.7,-241.102 z m -9978.2,1972.3 -7.61,-12.4 2.99,5.5 z"
         style="fill:#ffffff;fill-opacity:1;fill-rule:nonzero;stroke:none"
         id="path14" /></g></g></svg>
