<svg xmlns="http://www.w3.org/2000/svg" viewBox="0 0 150 40" fill="none">
<path d="M51.4241 29.0196V30.6708C51.4214 30.7374 51.393 30.8004 51.3449 30.8466C51.2968 30.8927 51.2327 30.9185 51.1661 30.9184H36.646C36.5793 30.9185 36.5152 30.8927 36.4671 30.8466C36.419 30.8004 36.3907 30.7374 36.388 30.6708V3.30237C36.388 3.23394 36.4152 3.16832 36.4636 3.11994C36.512 3.07156 36.5776 3.04437 36.646 3.04437H38.5552C38.6236 3.04437 38.6892 3.07156 38.7376 3.11994C38.786 3.16832 38.8132 3.23394 38.8132 3.30237V28.7822H51.1971C51.2566 28.7893 51.3118 28.8168 51.3533 28.8601C51.3947 28.9034 51.4197 28.9598 51.4241 29.0196ZM69.4014 10.4438H65.0154V6.38803C65.0154 3.51909 65.9546 2.1259 67.8947 2.1259C68.6788 2.13282 69.4512 2.31624 70.1547 2.66254C70.2212 2.68795 70.2947 2.68795 70.3612 2.66254C70.3945 2.64789 70.4244 2.6266 70.4492 2.59999C70.4741 2.57338 70.4932 2.54199 70.5056 2.50774L71.0114 1.01135C71.0321 0.949631 71.0287 0.882369 71.0019 0.823037C70.9751 0.763704 70.9269 0.71669 70.8669 0.691432C69.9197 0.25901 68.8944 0.0237654 67.8534 0C64.5098 0 62.6934 2.21878 62.6934 6.25386V10.4438L60.1857 10.6089C60.1536 10.6088 60.1219 10.6153 60.0924 10.6279C60.0629 10.6404 60.0363 10.6588 60.0141 10.682C59.9919 10.7051 59.9746 10.7325 59.9633 10.7625C59.952 10.7925 59.9469 10.8245 59.9483 10.8565V12.291C59.9483 12.3594 59.9755 12.4251 60.0239 12.4734C60.0723 12.5218 60.1379 12.549 60.2063 12.549H62.6934V30.6295C62.6934 30.6952 62.7196 30.7582 62.766 30.8046C62.8125 30.8511 62.8754 30.8772 62.9411 30.8772H64.7781C64.8448 30.8772 64.9089 30.8515 64.957 30.8053C65.0051 30.7591 65.0334 30.6961 65.0361 30.6295V12.5903H69.3911C69.4595 12.5903 69.5251 12.5631 69.5735 12.5147C69.6219 12.4663 69.6491 12.4007 69.6491 12.3323V10.7224C69.6465 10.6575 69.6196 10.596 69.5737 10.5501C69.5278 10.5042 69.4663 10.4773 69.4014 10.4747V10.4438ZM86.7389 19.4221C86.7481 19.9366 86.7135 20.451 86.6356 20.9597C86.6238 21.0199 86.5918 21.0742 86.5449 21.1136C86.4979 21.1531 86.4389 21.1752 86.3776 21.1764H72.3013C72.4665 26.0371 75.3973 29.2879 79.5253 29.2879C81.4033 29.2931 83.2321 28.6883 84.7368 27.5645C84.7691 27.5496 84.8043 27.542 84.8399 27.542C84.8755 27.542 84.9109 27.5496 84.9432 27.5645C84.9786 27.5706 85.0119 27.585 85.0406 27.6065C85.0693 27.6281 85.0925 27.6561 85.1083 27.6883L85.8616 29.0815C85.8785 29.1093 85.8899 29.1401 85.895 29.1723C85.9 29.2044 85.8986 29.2373 85.8909 29.2689C85.8833 29.3005 85.8694 29.3303 85.8503 29.3566C85.8311 29.3829 85.8069 29.4051 85.7791 29.4221C83.8928 30.7345 81.6478 31.4336 79.3498 31.4241C73.777 31.4241 69.8761 27.0278 69.8761 20.7327C69.8761 13.7461 74.4891 9.96903 78.8338 9.96903C83.7874 9.96903 86.7389 13.5191 86.7389 19.4943V19.4221ZM84.4994 19.1537C84.4272 14.5614 82.4355 12.0433 78.8648 12.0433C75.2941 12.0433 72.7863 14.9535 72.3115 19.1537H84.4994ZM99.9793 10.3818C99.3365 10.0716 98.6288 9.91941 97.9153 9.93807C95.8513 9.93807 93.8802 11.2693 92.3735 13.6945L92.2084 10.6811C92.2032 10.6163 92.1737 10.5559 92.1258 10.5119C92.078 10.4679 92.0154 10.4435 91.9504 10.4438H90.4024C90.3357 10.4437 90.2716 10.4695 90.2235 10.5156C90.1754 10.5618 90.147 10.6248 90.1444 10.6914V30.6398C90.147 30.7064 90.1754 30.7694 90.2235 30.8156C90.2716 30.8618 90.3357 30.8875 90.4024 30.8875H92.2393C92.305 30.8875 92.368 30.8614 92.4145 30.8149C92.4609 30.7685 92.487 30.7055 92.487 30.6398V17.1207C93.7667 14.0248 95.6552 12.1981 97.647 12.1981C98.2341 12.1841 98.8176 12.2931 99.3601 12.518C99.3923 12.5336 99.4276 12.5417 99.4633 12.5417C99.499 12.5417 99.5343 12.5336 99.5665 12.518C99.5987 12.5023 99.6267 12.4791 99.6482 12.4504C99.6697 12.4217 99.6842 12.3883 99.6903 12.3529L100.113 10.6914C100.128 10.641 100.127 10.5874 100.111 10.5376C100.094 10.4878 100.063 10.4443 100.021 10.4128L99.9793 10.3818ZM116.667 10.6914V30.6398C116.667 30.7055 116.641 30.7685 116.594 30.8149C116.548 30.8614 116.485 30.8875 116.419 30.8875H114.861C114.796 30.8877 114.733 30.8634 114.685 30.8194C114.637 30.7754 114.608 30.7149 114.603 30.6501L114.448 28.5861C112.767 30.3214 110.484 31.3448 108.07 31.4448C102.745 31.4448 99.5665 27.451 99.5665 20.7533C99.5665 14.5614 103.406 9.98967 108.679 9.98967C110.812 10.0134 112.862 10.8132 114.448 12.2394L114.561 10.7327C114.561 10.7006 114.568 10.6689 114.58 10.6394C114.593 10.6099 114.611 10.5833 114.634 10.5611C114.658 10.5389 114.685 10.5217 114.715 10.5104C114.745 10.4991 114.777 10.494 114.809 10.4953H116.419C116.453 10.4895 116.488 10.4909 116.522 10.4994C116.555 10.5079 116.587 10.5233 116.614 10.5447C116.641 10.5661 116.663 10.593 116.68 10.6236C116.696 10.6542 116.705 10.6878 116.708 10.7224L116.667 10.6914ZM108.772 12.0846C104.974 12.0846 102.002 15.8617 102.002 20.6914C102.002 26.0475 104.376 29.2466 108.338 29.2466C110.33 29.2466 112.177 28.2765 114.324 26.1506V14.5407C112.869 13.0508 110.894 12.1817 108.813 12.1156L108.772 12.0846ZM136.295 10.5469C136.27 10.5155 136.239 10.4899 136.204 10.472C136.168 10.4542 136.129 10.4445 136.089 10.4438H134.21C134.157 10.4423 134.105 10.4574 134.06 10.487C134.016 10.5166 133.982 10.5591 133.963 10.6089L129.721 23.1476C129.494 23.808 129.267 24.5407 129.02 25.2941C128.7 26.3261 128.359 27.3581 127.988 28.3178C127.575 27.2858 127.141 26.1506 126.718 25.0464C126.471 24.3756 126.223 23.7255 125.985 23.1372L121.176 10.6089C121.159 10.56 121.127 10.5177 121.084 10.4881C121.042 10.4585 120.991 10.4429 120.939 10.4438H118.958C118.915 10.4441 118.873 10.4546 118.836 10.4744C118.798 10.4941 118.765 10.5225 118.741 10.5573C118.723 10.5942 118.713 10.6348 118.713 10.6759C118.713 10.7171 118.723 10.7577 118.741 10.7946L126.894 31.0216L126.378 32.6625C125.593 34.9948 124.118 37.8225 121.507 37.8225C120.98 37.8058 120.461 37.7012 119.969 37.5129C119.937 37.498 119.901 37.4903 119.866 37.4903C119.83 37.4903 119.795 37.498 119.763 37.5129C119.73 37.5287 119.702 37.5518 119.681 37.5805C119.659 37.6092 119.645 37.6426 119.639 37.678L119.205 39.2569C119.19 39.3158 119.196 39.3782 119.223 39.4329C119.249 39.4877 119.294 39.5313 119.35 39.5562C120.027 39.8517 120.758 40.0028 121.496 40C124.592 40 126.966 37.6677 128.442 33.2611L136.316 10.8153C136.339 10.7806 136.353 10.7407 136.356 10.6992C136.36 10.6577 136.353 10.616 136.336 10.5779L136.295 10.5469ZM56.2745 10.4438H54.4375C54.3718 10.4438 54.3089 10.4698 54.2624 10.5163C54.216 10.5627 54.1898 10.6257 54.1898 10.6914V30.6398C54.1898 30.7055 54.216 30.7685 54.2624 30.8149C54.3089 30.8614 54.3718 30.8875 54.4375 30.8875H56.2745C56.3412 30.8875 56.4053 30.8618 56.4534 30.8156C56.5015 30.7694 56.5298 30.7064 56.5325 30.6398V10.7224C56.5309 10.6623 56.5083 10.6047 56.4687 10.5595C56.4292 10.5143 56.375 10.4843 56.3157 10.4747L56.2745 10.4438ZM56.8627 3.50877C56.8627 3.3555 56.8019 3.2085 56.6935 3.10012C56.5851 2.99174 56.4381 2.93085 56.2848 2.93085H54.4272C54.2757 2.93356 54.1314 2.99564 54.0252 3.10373C53.919 3.21182 53.8595 3.35727 53.8595 3.50877V5.36635C53.8595 5.51785 53.919 5.6633 54.0252 5.77139C54.1314 5.87948 54.2757 5.94156 54.4272 5.94427H56.2848C56.3607 5.94427 56.4358 5.92932 56.5059 5.90027C56.576 5.87123 56.6398 5.82866 56.6935 5.775C56.7472 5.72133 56.7897 5.65762 56.8187 5.58751C56.8478 5.51739 56.8627 5.44224 56.8627 5.36635V3.50877ZM146.594 10.1032C146.581 10.9065 146.256 11.6731 145.688 12.2412C145.12 12.8093 144.353 13.1343 143.55 13.1476C142.738 13.1477 141.958 12.8286 141.379 12.2591C140.8 11.6896 140.467 10.9153 140.454 10.1032C140.454 9.28209 140.78 8.49461 141.361 7.91401C141.941 7.3334 142.729 7.00722 143.55 7.00722C143.958 7.00856 144.362 7.09066 144.739 7.24879C145.115 7.40691 145.457 7.63795 145.743 7.92859C146.03 8.21923 146.257 8.56372 146.41 8.94225C146.563 9.32078 146.64 9.72585 146.636 10.1342L146.594 10.1032ZM146.12 10.1032C146.117 9.42251 145.845 8.77048 145.364 8.28917C144.883 7.80785 144.231 7.53625 143.55 7.53354C142.869 7.53625 142.217 7.80785 141.736 8.28917C141.255 8.77048 140.983 9.42251 140.98 10.1032C140.98 10.7847 141.251 11.4383 141.733 11.9202C142.215 12.4021 142.868 12.6728 143.55 12.6728C143.888 12.6783 144.224 12.6169 144.539 12.4921C144.853 12.3674 145.14 12.1817 145.383 11.9459C145.625 11.71 145.819 11.4285 145.953 11.1176C146.086 10.8067 146.157 10.4725 146.161 10.1342L146.12 10.1032ZM143.086 11.6512H142.497V8.55521H143.591C144.272 8.55521 144.788 8.79256 144.788 9.52527C144.801 9.7282 144.745 9.92957 144.629 10.0964C144.513 10.2633 144.343 10.3857 144.149 10.4438L144.83 11.6409H144.179L143.571 10.5366H143.086V11.6512ZM143.086 10.0722H143.529C143.973 10.0722 144.21 9.89679 144.21 9.53559C144.21 9.1744 143.973 9.04024 143.529 9.04024H143.086V10.0722ZM28.0701 5.04643V28.9577C28.0701 29.5051 27.8527 30.03 27.4657 30.4171C27.0786 30.8042 26.5535 31.0216 26.0061 31.0216H2.06398C1.51658 31.0216 0.991628 30.8042 0.604556 30.4171C0.217485 30.03 0 29.5051 0 28.9577V5.04643C0 4.49903 0.217485 3.97405 0.604556 3.58698C0.991628 3.19991 1.51658 2.98245 2.06398 2.98245H25.9753C26.2489 2.97835 26.5206 3.02871 26.7746 3.13059C27.0286 3.23248 27.2598 3.38385 27.4547 3.57592C27.6497 3.76799 27.8045 3.99691 27.9101 4.24936C28.0158 4.50182 28.0701 4.77276 28.0701 5.04643ZM8.31791 18.0392C8.31526 17.9032 8.26004 17.7735 8.16384 17.6773C8.06764 17.5811 7.93793 17.5258 7.80191 17.5232H4.70594C4.56992 17.5258 4.44009 17.5811 4.34389 17.6773C4.24768 17.7735 4.19259 17.9032 4.18994 18.0392V21.1352C4.19259 21.2712 4.24768 21.4009 4.34389 21.4971C4.44009 21.5933 4.56992 21.6485 4.70594 21.6512H7.80191C7.93793 21.6485 8.06764 21.5933 8.16384 21.4971C8.26004 21.4009 8.31526 21.2712 8.31791 21.1352V18.0392ZM8.31791 12.8792C8.31793 12.7414 8.26385 12.6091 8.16737 12.5107C8.07088 12.4123 7.9397 12.3556 7.80191 12.3529H4.70594C4.56815 12.3556 4.43684 12.4123 4.34036 12.5107C4.24388 12.6091 4.18992 12.7414 4.18994 12.8792V15.9752C4.18994 16.1121 4.24422 16.2433 4.34099 16.3401C4.43776 16.4368 4.56909 16.4912 4.70594 16.4912H7.80191C7.93876 16.4912 8.06997 16.4368 8.16674 16.3401C8.2635 16.2433 8.31791 16.1121 8.31791 15.9752V12.8792ZM8.31791 7.71929C8.31793 7.58147 8.26385 7.44914 8.16737 7.35073C8.07088 7.25232 7.9397 7.19568 7.80191 7.19298H4.70594C4.56815 7.19568 4.43684 7.25232 4.34036 7.35073C4.24388 7.44914 4.18992 7.58147 4.18994 7.71929V10.8153C4.18994 10.9521 4.24422 11.0834 4.34099 11.1801C4.43776 11.2769 4.56909 11.3313 4.70594 11.3313H7.80191C7.93876 11.3313 8.06997 11.2769 8.16674 11.1801C8.2635 11.0834 8.31791 10.9521 8.31791 10.8153V7.71929ZM13.4779 23.3127C13.4779 23.244 13.4641 23.1761 13.4375 23.1128C13.411 23.0495 13.3721 22.9922 13.323 22.9441C13.274 22.8961 13.2159 22.8583 13.1521 22.833C13.0883 22.8076 13.0202 22.7953 12.9515 22.7967H9.85556C9.71871 22.7967 9.58738 22.851 9.49061 22.9478C9.39384 23.0446 9.33957 23.1758 9.33957 23.3127V26.4086C9.33819 26.4773 9.35053 26.5455 9.37585 26.6093C9.40117 26.6731 9.43891 26.7312 9.48696 26.7802C9.53501 26.8292 9.59235 26.8681 9.65564 26.8947C9.71893 26.9213 9.78692 26.935 9.85556 26.935H12.9515C13.0911 26.935 13.225 26.8795 13.3237 26.7808C13.4224 26.6821 13.4779 26.5482 13.4779 26.4086V23.3127ZM13.4779 12.9205C13.4779 12.7809 13.4224 12.6471 13.3237 12.5484C13.225 12.4497 13.0911 12.3942 12.9515 12.3942H9.85556C9.78692 12.3942 9.71893 12.4079 9.65564 12.4345C9.59235 12.461 9.53501 12.5 9.48696 12.549C9.43891 12.598 9.40117 12.6561 9.37585 12.7199C9.35053 12.7837 9.33819 12.8519 9.33957 12.9205V16.0165C9.33957 16.1533 9.39384 16.2846 9.49061 16.3814C9.58738 16.4781 9.71871 16.5325 9.85556 16.5325H12.9515C13.0202 16.5339 13.0883 16.5215 13.1521 16.4962C13.2159 16.4709 13.274 16.4331 13.323 16.3851C13.3721 16.337 13.411 16.2797 13.4375 16.2164C13.4641 16.1531 13.4779 16.0851 13.4779 16.0165V12.9205ZM13.4779 7.76057C13.4779 7.62098 13.4224 7.48712 13.3237 7.38841C13.225 7.28971 13.0911 7.23426 12.9515 7.23426H9.85556C9.78692 7.23424 9.71893 7.24793 9.65564 7.2745C9.59235 7.30107 9.53501 7.34001 9.48696 7.38902C9.43891 7.43803 9.40117 7.49614 9.37585 7.55994C9.35053 7.62374 9.33819 7.69194 9.33957 7.76057V10.8565C9.33957 10.9934 9.39384 11.1246 9.49061 11.2214C9.58738 11.3182 9.71871 11.3725 9.85556 11.3725H12.9515C13.0202 11.3739 13.0883 11.3616 13.1521 11.3363C13.2159 11.3109 13.274 11.2732 13.323 11.2251C13.3721 11.1771 13.411 11.1197 13.4375 11.0564C13.4641 10.9931 13.4779 10.9252 13.4779 10.8565V7.76057ZM18.6378 23.354C18.6378 23.2853 18.6241 23.2174 18.5975 23.1541C18.5709 23.0908 18.532 23.0334 18.483 22.9854C18.434 22.9373 18.3758 22.8996 18.312 22.8742C18.2482 22.8489 18.1801 22.8366 18.1115 22.838H15.0155C14.8787 22.838 14.7473 22.8923 14.6506 22.9891C14.5538 23.0859 14.4995 23.2171 14.4995 23.354V26.4499C14.4981 26.5185 14.5105 26.5868 14.5358 26.6506C14.5611 26.7144 14.5989 26.7725 14.6469 26.8215C14.695 26.8705 14.7523 26.9094 14.8156 26.936C14.8789 26.9626 14.9469 26.9763 15.0155 26.9762H18.1115C18.2511 26.9762 18.3849 26.9208 18.4836 26.8221C18.5823 26.7234 18.6378 26.5895 18.6378 26.4499V23.354ZM18.6378 18.194C18.6351 18.0562 18.5784 17.925 18.48 17.8285C18.3816 17.732 18.2493 17.678 18.1115 17.678H15.0155C14.8787 17.678 14.7473 17.7324 14.6506 17.8291C14.5538 17.9259 14.4995 18.0571 14.4995 18.194V21.29C14.4995 21.4268 14.5538 21.5581 14.6506 21.6548C14.7473 21.7516 14.8787 21.806 15.0155 21.806H18.1115C18.2493 21.806 18.3816 21.752 18.48 21.6555C18.5784 21.559 18.6351 21.4278 18.6378 21.29V18.194ZM18.6378 7.80185C18.6378 7.66226 18.5823 7.52839 18.4836 7.42969C18.3849 7.33098 18.2511 7.27554 18.1115 7.27554H15.0155C14.9469 7.27553 14.8789 7.28921 14.8156 7.31578C14.7523 7.34235 14.695 7.38129 14.6469 7.4303C14.5989 7.47931 14.5611 7.53742 14.5358 7.60122C14.5105 7.66502 14.4981 7.73322 14.4995 7.80185V10.8978C14.4995 11.0347 14.5538 11.1659 14.6506 11.2627C14.7473 11.3595 14.8787 11.4138 15.0155 11.4138H18.1115C18.1801 11.4152 18.2482 11.4029 18.312 11.3775C18.3758 11.3522 18.434 11.3144 18.483 11.2664C18.532 11.2183 18.5709 11.161 18.5975 11.0977C18.6241 11.0344 18.6378 10.9665 18.6378 10.8978V7.80185ZM23.7978 23.3952C23.7978 23.2584 23.7434 23.1271 23.6466 23.0304C23.5498 22.9336 23.4186 22.8792 23.2818 22.8792H20.1858C20.1172 22.8779 20.0489 22.8902 19.9851 22.9155C19.9213 22.9408 19.8632 22.9786 19.8142 23.0267C19.7652 23.0747 19.7262 23.1321 19.6997 23.1954C19.6731 23.2586 19.6595 23.3266 19.6595 23.3952V26.4912C19.6595 26.6308 19.7148 26.7647 19.8135 26.8634C19.9122 26.9621 20.0462 27.0175 20.1858 27.0175H23.2818C23.3504 27.0175 23.4183 27.0039 23.4816 26.9773C23.5449 26.9507 23.6022 26.9118 23.6503 26.8628C23.6983 26.8137 23.7362 26.7556 23.7615 26.6918C23.7868 26.628 23.7991 26.5598 23.7978 26.4912V23.3952ZM23.7978 18.2353C23.7978 18.0984 23.7434 17.9672 23.6466 17.8704C23.5498 17.7736 23.4186 17.7193 23.2818 17.7193H20.1858C20.048 17.7193 19.9156 17.7733 19.8172 17.8698C19.7188 17.9662 19.6622 18.0975 19.6595 18.2353V21.3312C19.6622 21.469 19.7188 21.6003 19.8172 21.6968C19.9156 21.7932 20.048 21.8473 20.1858 21.8472H23.2818C23.4186 21.8472 23.5498 21.7929 23.6466 21.6961C23.7434 21.5993 23.7978 21.4681 23.7978 21.3312V18.2353ZM23.7978 13.0753C23.7991 13.0067 23.7868 12.9385 23.7615 12.8747C23.7362 12.8109 23.6983 12.7528 23.6503 12.7038C23.6022 12.6548 23.5449 12.6158 23.4816 12.5892C23.4183 12.5627 23.3504 12.549 23.2818 12.549H20.1858C20.1167 12.549 20.0482 12.5626 19.9844 12.5891C19.9205 12.6155 19.8624 12.6543 19.8135 12.7032C19.7647 12.752 19.726 12.8101 19.6995 12.8739C19.6731 12.9378 19.6595 13.0062 19.6595 13.0753V16.1713C19.6595 16.2399 19.6731 16.3079 19.6997 16.3712C19.7262 16.4345 19.7652 16.4918 19.8142 16.5399C19.8632 16.5879 19.9213 16.6257 19.9851 16.651C20.0489 16.6763 20.1172 16.6887 20.1858 16.6873H23.2818C23.4186 16.6873 23.5498 16.6329 23.6466 16.5362C23.7434 16.4394 23.7978 16.3081 23.7978 16.1713V13.0753Z" fill="white"></path>
</svg>